<svg width="114" xmlns="http://www.w3.org/2000/svg" height="96" viewBox="0 0 114 96" xmlns:xlink="http://www.w3.org/1999/xlink">
<path d="m108.006,69.03l.171-51.267-93.15,.057-.003-5.88h98.976v57.093l-5.994-.003zm-3.021,9.021l-5.991-.006 .171-51.267-93.15,.06-.003-5.88h98.976v57.093zm-8.829,6.009h-96.159v-54.09h96.159v54.09zm-6.012-48.267h-84.138v42.258h84.135v-42.258zm-9.009,37.752c0,.531 .132,1.026 .303,1.5h-33.36c8.298,0 15.027-8.07 15.027-18.03s-6.729-18.03-15.027-18.03h33.357c-.171,.474-.303,.969-.303,1.503 0,2.49 2.016,4.506 4.506,4.506 .534,0 1.029-.132 1.503-.303v24.645c-.474-.168-.969-.303-1.503-.303-2.487,.003-4.503,2.022-4.503,4.512zm-6.012-22.788c-2.49,0-4.506,2.688-4.506,6.009s2.016,6.009 4.506,6.009 4.506-2.688 4.506-6.009-2.016-6.009-4.506-6.009zm-20.754-4.575c.045,.087 .081,.204 .111,.348 .033,.144 .054,.327 .063,.546 .015,.219 .021,.492 .021,.819 0,.363-.009,.672-.027,.921-.021,.252-.054,.459-.093,.621-.048,.165-.108,.285-.186,.357-.081,.075-.192,.114-.33,.114s-.354-.087-.657-.261c-.303-.177-.672-.363-1.107-.567s-.945-.393-1.521-.561-1.206-.252-1.896-.252c-.54,0-1.008,.063-1.407,.195-.402,.132-.738,.312-1.005,.543-.27,.231-.471,.51-.6,.831-.132,.324-.198,.669-.198,1.029 0,.54 .147,1.005 .441,1.401 .294,.393 .687,.744 1.185,1.05 .495,.309 1.056,.594 1.68,.864s1.263,.555 1.914,.852c.651,.303 1.29,.642 1.917,1.026 .627,.381 1.185,.837 1.671,1.368 .489,.534 .885,1.158 1.185,1.878s.45,1.566 .45,2.544c0,1.275-.24,2.397-.714,3.357-.474,.963-1.119,1.77-1.935,2.415s-1.764,1.128-2.853,1.452c-.138,.042-.288,.06-.429,.093v3.282h-2.955v-2.895c-.039,0-.072,.009-.111,.009-.837,0-1.617-.069-2.337-.204-.72-.138-1.356-.303-1.905-.492-.552-.192-1.011-.396-1.38-.606-.372-.21-.636-.396-.798-.558s-.279-.396-.348-.702-.105-.75-.105-1.326c0-.387 .012-.714 .039-.975 .024-.264 .066-.477 .123-.642 .057-.162 .132-.279 .225-.348 .093-.066 .204-.102 .327-.102 .177,0 .423,.102 .744,.312 .318,.204 .729,.435 1.23,.684s1.098,.477 1.794,.684c.693,.207 1.5,.312 2.412,.312 .6,0 1.14-.072 1.614-.216 .477-.144 .879-.348 1.212-.609 .33-.264 .582-.591 .759-.978 .177-.39 .264-.822 .264-1.299 0-.552-.153-1.026-.45-1.419-.3-.396-.69-.744-1.173-1.053-.483-.306-1.029-.594-1.641-.861-.615-.27-1.245-.555-1.896-.855-.651-.3-1.284-.642-1.896-1.023-.612-.381-1.161-.837-1.641-1.371-.48-.531-.873-1.161-1.173-1.884-.3-.726-.45-1.596-.45-2.61 0-1.164 .216-2.187 .648-3.066 .432-.882 1.014-1.614 1.746-2.196 .732-.579 1.596-1.017 2.589-1.305 .51-.147 1.038-.255 1.581-.327v-3.105h2.955v3.105c.117,.015 .234,.009 .351,.027 .576,.087 1.116,.204 1.617,.354 .498,.15 .942,.315 1.329,.504 .39,.186 .645,.339 .774,.465 .117,.111 .201,.216 .246,.306zm-21.315,10.833c0,9.957 6.726,18.03 15.024,18.03h-33.357c.168-.474 .303-.969 .303-1.5 0-2.49-2.019-4.509-4.506-4.509-.534,0-1.029,.135-1.503,.303v-24.645c.474,.171 .969,.303 1.503,.303 2.49,0 4.506-2.016 4.506-4.506 0-.534-.135-1.029-.303-1.503h33.357c-8.298-.003-15.024,8.07-15.024,18.027zm-12.021-6.258c-2.49,0-4.506,2.688-4.506,6.009s2.019,6.009 4.506,6.009c2.49,0 4.506-2.688 4.506-6.009s-2.016-6.009-4.506-6.009z"/>
</svg>
